<svg xmlns="http://www.w3.org/2000/svg" width="737" height="539" viewBox="0 0 737 539"><rect x="0" y="0" width="100%" height="100%" fill="none" stroke="#ffffff" stroke-width="1"/><g id="bboxes"><rect x="420.798" y="224.162" width="50.000" height="57.000" fill="none" stroke="#00ff7f" stroke-width="1"/><rect x="475.900" y="145.261" width="95.000" height="83.000" fill="none" stroke="#00ff7f" stroke-width="1"/><rect x="590.686" y="56.643" width="81.000" height="150.000" fill="none" stroke="#00ff7f" stroke-width="1"/><rect x="634.184" y="254.183" width="43.000" height="55.000" fill="none" stroke="#00ff7f" stroke-width="1"/><rect x="487.894" y="301.494" width="51.000" height="39.000" fill="none" stroke="#00ff7f" stroke-width="1"/><rect x="492.700" y="373.848" width="46.000" height="57.000" fill="none" stroke="#00ff7f" stroke-width="1"/><rect x="327.600" y="406.945" width="40.000" height="37.000" fill="none" stroke="#00ff7f" stroke-width="1"/><rect x="436.700" y="479.200" width="27.000" height="52.000" fill="none" stroke="#00ff7f" stroke-width="1"/><rect x="613.367" y="428.110" width="36.000" height="57.000" fill="none" stroke="#00ff7f" stroke-width="1"/><rect x="668.500" y="474.436" width="31.000" height="41.000" fill="none" stroke="#00ff7f" stroke-width="1"/><rect x="406.100" y="539.485" width="33.000" height="35.000" fill="none" stroke="#00ff7f" stroke-width="1"/><rect x="513.216" y="495.602" width="53.000" height="33.000" fill="none" stroke="#00ff7f" stroke-width="1"/><rect x="562.941" y="445.129" width="49.000" height="44.000" fill="none" stroke="#00ff7f" stroke-width="1"/><rect x="272.405" y="546.567" width="71.000" height="35.000" fill="none" stroke="#00ff7f" stroke-width="1"/><rect x="413.400" y="173.000" width="16.000" height="45.000" fill="none" stroke="#00ff7f" stroke-width="1"/></g><g id="polys"><path d="M 436.103 224.162 L 420.798 227.391 L 420.798 269.848 L 433.628 280.324 L 468.975 280.324 L 470.452 277.618 Z" fill="none" stroke="#ff3b30" stroke-width="1"/><text x="438.103" y="236.162" fill="#ff3b30" font-size="10">25</text><path d="M 509.663 187.405 L 570.832 148.099 L 569.347 145.261 L 475.900 183.996 L 475.900 207.983 L 487.554 210.202 L 498.268 227.281 L 501.545 226.900 L 511.706 197.087 Z" fill="none" stroke="#ff3b30" stroke-width="1"/><text x="511.663" y="199.405" fill="#ff3b30" font-size="10">107</text><path d="M 592.512 56.643 L 590.686 57.287 L 634.445 206.477 L 671.191 181.818 L 656.961 166.805 L 638.176 166.805 Z" fill="none" stroke="#ff3b30" stroke-width="1"/><text x="594.512" y="68.643" fill="#ff3b30" font-size="10">62</text><path d="M 653.914 302.580 L 670.440 308.459 L 676.760 302.904 L 669.954 288.468 L 674.784 281.816 L 674.784 270.047 L 664.480 271.624 L 663.368 264.615 L 634.184 254.183 L 634.184 281.525 L 639.493 297.566 L 647.805 300.578 Z" fill="none" stroke="#ff3b30" stroke-width="1"/><text x="655.914" y="314.580" fill="#ff3b30" font-size="10">2</text><path d="M 513.900 311.609 L 497.338 301.494 L 487.894 322.802 L 487.894 340.337 L 526.099 340.337 L 537.125 329.785 L 538.239 309.476 L 524.759 307.454 Z" fill="none" stroke="#ff3b30" stroke-width="1"/><text x="515.900" y="323.609" fill="#ff3b30" font-size="10">82</text><path d="M 501.872 424.161 L 507.992 425.714 L 517.128 430.728 L 537.776 422.034 L 526.100 410.357 L 526.100 391.382 L 507.008 373.848 L 502.194 388.428 L 492.700 401.740 L 492.700 423.203 Z" fill="none" stroke="#ff3b30" stroke-width="1"/><text x="503.872" y="436.161" fill="#ff3b30" font-size="10">98</text><path d="M 367.500 411.417 L 327.600 406.945 L 327.600 414.100 L 327.600 442.978 L 335.482 443.306 L 367.500 440.225 Z" fill="none" stroke="#ff3b30" stroke-width="1"/><text x="369.500" y="423.417" fill="#ff3b30" font-size="10">44</text><path d="M 436.700 496.400 L 436.700 529.393 L 439.570 530.835 L 463.000 513.407 L 463.000 479.200 L 436.700 479.200 Z" fill="none" stroke="#ff3b30" stroke-width="1"/><text x="438.700" y="508.400" fill="#ff3b30" font-size="10">30</text><path d="M 639.891 428.110 L 630.719 433.127 L 613.367 438.587 L 620.200 452.497 L 620.200 482.782 L 623.207 484.193 L 636.724 472.969 L 648.910 452.079 Z" fill="none" stroke="#ff3b30" stroke-width="1"/><text x="641.891" y="440.110" fill="#ff3b30" font-size="10">65</text><path d="M 698.900 486.778 L 683.815 474.436 L 668.500 486.764 L 668.500 514.800 L 683.700 514.800 L 698.900 514.800 L 698.900 497.400 Z" fill="none" stroke="#ff3b30" stroke-width="1"/><text x="700.900" y="498.778" fill="#ff3b30" font-size="10">13</text><path d="M 406.100 562.843 L 417.272 574.014 L 438.992 573.765 L 438.016 541.695 L 406.100 539.485 Z" fill="none" stroke="#ff3b30" stroke-width="1"/><text x="408.100" y="574.843" fill="#ff3b30" font-size="10">87</text><path d="M 565.850 515.636 L 551.619 504.226 L 534.587 495.602 L 513.216 500.296 L 515.627 509.799 L 516.601 518.562 L 536.126 518.562 L 550.113 528.537 Z" fill="none" stroke="#ff3b30" stroke-width="1"/><text x="567.850" y="527.636" fill="#ff3b30" font-size="10">17</text><path d="M 610.740 446.405 L 607.436 445.129 L 588.731 464.807 L 564.733 475.618 L 562.941 480.635 L 578.157 478.163 L 585.024 479.946 L 591.498 482.735 L 611.691 488.379 Z" fill="none" stroke="#ff3b30" stroke-width="1"/><text x="612.740" y="458.405" fill="#ff3b30" font-size="10">56</text><path d="M 272.405 576.581 L 273.419 581.393 L 310.166 581.504 L 343.041 551.255 L 339.963 546.567 Z" fill="none" stroke="#ff3b30" stroke-width="1"/><text x="274.405" y="588.581" fill="#ff3b30" font-size="10">47</text><path d="M 413.400 186.600 L 413.400 205.652 L 425.450 217.573 L 428.700 216.216 L 428.700 173.000 L 416.145 173.000 Z" fill="none" stroke="#ff3b30" stroke-width="1"/><text x="415.400" y="198.600" fill="#ff3b30" font-size="10">28</text></g></svg>